<?xml version="1.0" standalone="no"?>
<!DOCTYPE svg PUBLIC "-//W3C//DTD SVG 20010904//EN"
 "http://www.w3.org/TR/2001/REC-SVG-20010904/DTD/svg10.dtd">
<svg version="1.0" xmlns="http://www.w3.org/2000/svg"
 width="700.000000pt" height="700.000000pt" viewBox="0 0 700.000000 700.000000"
 preserveAspectRatio="xMidYMid meet">
<metadata>
Created by potrace 1.14, written by Peter Selinger 2001-2017
</metadata>
<g transform="translate(0.000000,700.000000) scale(0.100000,-0.100000)"
fill="#000000" stroke="none">
<path d="M5896 6472 c-17 -28 -257 -426 -326 -542 -68 -113 -96 -160 -110
-185 -10 -16 -91 -151 -180 -300 -90 -148 -171 -284 -181 -301 -9 -18 -40 -69
-68 -114 -28 -45 -51 -83 -51 -85 0 -2 -27 -47 -60 -100 -33 -53 -60 -98 -60
-100 0 -1 -18 -32 -39 -66 -48 -78 -191 -316 -207 -344 -6 -11 -61 -103 -122
-204 -62 -101 -112 -185 -112 -187 0 -1 -26 -45 -58 -96 -32 -51 -61 -100 -65
-108 -4 -8 -58 -100 -122 -204 -63 -103 -115 -190 -115 -191 0 -2 -27 -47 -60
-100 -33 -53 -60 -98 -60 -100 0 -1 -18 -32 -39 -66 -22 -35 -87 -145 -146
-244 -59 -99 -115 -191 -124 -205 -9 -14 -35 -55 -56 -92 -22 -38 -42 -68 -45
-68 -3 0 -67 159 -143 353 -77 193 -147 370 -157 392 -9 22 -21 51 -25 65 -4
14 -14 41 -22 60 -8 19 -19 44 -24 55 -16 38 -242 611 -295 750 -30 77 -59
149 -64 160 -5 11 -50 126 -101 255 -50 129 -95 239 -99 243 -14 16 -267 -99
-410 -187 -76 -47 -277 -195 -303 -223 -19 -22 -21 -18 133 -203 172 -207 258
-310 284 -341 17 -20 38 -44 46 -55 22 -28 164 -198 170 -204 3 -3 25 -30 50
-60 63 -76 70 -85 142 -170 34 -42 81 -98 103 -124 22 -27 134 -162 249 -300
115 -138 226 -271 247 -296 20 -25 63 -76 96 -115 32 -38 65 -79 74 -90 10
-11 29 -33 43 -50 l26 -30 27 30 c16 17 47 53 69 80 451 542 1039 1249 1096
1316 9 11 31 39 50 61 18 23 49 60 68 83 19 23 54 64 77 91 22 27 121 146 219
264 98 118 186 224 196 235 9 11 101 121 204 245 102 124 204 245 224 270 21
25 111 133 200 240 89 107 172 206 184 220 11 14 52 63 91 110 38 47 72 87 75
90 3 3 48 57 100 120 52 63 103 124 113 135 48 52 98 125 92 134 -3 6 -65 55
-138 110 -149 111 -289 198 -437 271 l-100 49 -24 -37z"/>
<path d="M3337 4794 c-1 -1 -36 -5 -77 -8 -41 -3 -86 -8 -100 -11 -14 -2 -54
-9 -90 -15 -131 -23 -320 -78 -326 -95 -3 -6 22 -83 55 -171 32 -87 110 -296
171 -464 62 -168 141 -381 175 -475 35 -93 122 -332 195 -530 129 -353 159
-430 165 -423 1 2 78 133 170 292 92 160 192 333 223 385 30 53 78 137 107
186 28 50 77 134 108 187 31 54 57 102 57 107 0 5 4 11 8 13 7 3 32 46 130
218 14 25 42 74 64 109 21 34 38 64 38 66 0 1 30 54 66 116 108 185 116 201
107 209 -17 16 -187 102 -266 135 -194 80 -362 125 -587 156 -69 9 -385 20
-393 13z"/>
<path d="M1859 4161 c-9 -9 -49 -48 -90 -87 -326 -311 -551 -725 -633 -1169
-51 -274 -51 -498 -1 -810 28 -174 128 -453 229 -639 47 -86 152 -250 177
-276 8 -8 30 -36 49 -62 19 -26 91 -103 160 -171 209 -206 412 -343 680 -460
126 -55 366 -126 485 -142 28 -4 59 -9 70 -11 133 -25 463 -24 610 1 17 3 45
8 63 11 25 4 32 9 28 22 -6 21 -14 88 -21 172 -3 36 -8 81 -10 100 -2 19 -9
78 -14 130 -6 52 -13 118 -16 145 -4 28 -8 68 -9 90 -3 36 -8 73 -21 185 -2
19 -7 60 -10 90 -6 68 -13 129 -21 200 -7 59 -8 69 -18 174 -4 37 -9 80 -11
95 -1 14 -6 55 -10 91 -3 36 -8 76 -10 90 -2 14 -6 54 -10 90 -3 36 -7 81 -10
100 -2 19 -7 62 -10 96 -6 53 -12 67 -53 115 -26 30 -65 77 -87 104 -22 26
-45 53 -50 59 -6 6 -46 54 -90 106 -43 52 -85 102 -92 110 -7 8 -68 80 -134
160 -67 80 -139 165 -160 190 -83 99 -173 207 -208 249 -20 24 -41 49 -46 55
-6 6 -116 137 -245 291 -128 154 -247 296 -264 316 -17 19 -51 60 -76 90 -25
29 -58 68 -75 85 -28 30 -31 31 -46 15z"/>
<path d="M5006 4035 c-20 -24 -42 -50 -49 -57 -7 -7 -68 -80 -137 -163 -69
-82 -129 -155 -135 -161 -25 -28 -70 -82 -210 -249 -82 -99 -158 -189 -168
-200 -10 -11 -44 -51 -75 -90 -31 -38 -60 -72 -63 -75 -3 -3 -41 -48 -84 -100
-43 -52 -81 -97 -85 -100 -3 -3 -50 -59 -105 -125 -55 -66 -102 -122 -105
-125 -9 -8 -204 -243 -228 -274 -12 -15 -20 -31 -18 -35 2 -3 7 -42 10 -86 4
-44 9 -87 11 -95 2 -8 7 -51 10 -95 3 -44 8 -89 10 -100 2 -11 7 -47 10 -80 3
-33 7 -71 9 -85 2 -14 7 -59 11 -100 4 -41 8 -88 10 -105 2 -16 6 -57 10 -90
3 -33 8 -73 10 -90 2 -16 7 -61 10 -100 4 -38 8 -81 10 -95 2 -14 6 -54 10
-90 4 -36 8 -76 10 -90 2 -14 6 -54 10 -90 4 -36 8 -76 10 -90 2 -14 7 -59 10
-100 4 -41 8 -77 10 -80 2 -3 6 -43 9 -90 4 -47 9 -94 11 -105 2 -11 4 -30 4
-42 1 -27 5 -26 211 13 99 19 294 82 415 134 44 19 216 110 270 143 51 31 215
148 255 183 95 81 263 257 333 349 105 138 200 303 280 485 48 111 117 345
133 450 3 19 7 42 9 50 2 8 7 42 10 75 4 33 8 78 11 100 6 53 6 287 -1 350 -5
55 -13 116 -19 155 -3 14 -7 41 -10 60 -41 262 -195 628 -364 865 -48 67 -157
200 -203 247 l-37 38 -36 -45z"/>
</g>
</svg>
